<?xml version="1.0" encoding="iso-8859-1"?>
<!-- Generator: Adobe Illustrator 16.0.0, SVG Export Plug-In . SVG Version: 6.00 Build 0)  -->
<!DOCTYPE svg PUBLIC "-//W3C//DTD SVG 1.1//EN" "http://www.w3.org/Graphics/SVG/1.1/DTD/svg11.dtd">
<svg version="1.1" xmlns="http://www.w3.org/2000/svg" xmlns:xlink="http://www.w3.org/1999/xlink" x="0px" y="0px" width="1835px"
	 height="525px" viewBox="0 0 1835 525" style="enable-background:new 0 0 1835 525;" xml:space="preserve">
<g id="Layer_1">
</g>
<g id="Layer_2">
	<path d="M1000.732,202.777h-86.426V106.83h86.426V202.777z M1000.732,381h-86.426v-95.947h86.426V381z"/>
	<path d="M1204.004,508.232h-69.6c-13.836-16.441-26.367-33.367-37.598-50.781c-11.23-17.418-20.916-36.133-29.053-56.152
		c-7.652-18.715-13.634-39.467-17.944-62.256c-4.314-22.785-6.47-46.467-6.47-71.045c0-26.855,2.235-51.186,6.714-72.998
		c4.475-21.809,10.292-41.748,17.456-59.814c7.813-19.691,17.372-38.288,28.687-55.786c11.311-17.494,24.048-34.706,38.208-51.636
		h69.6l148.496-5.088c-13.184,11.883-174.253,37.521-186.216,52.573c-11.963,15.057-23.071,32.677-33.325,52.856
		c-9.766,19.371-17.7,40.855-23.804,64.453c-6.104,23.602-9.155,48.748-9.155,75.439c0,27.832,2.968,53.063,8.911,75.684
		c5.939,22.625,13.954,44.029,24.048,64.209c9.766,19.203,20.79,36.659,33.081,52.368c12.287,15.705,173.437,36.415,186.46,47.974
		H1204.004z"/>
	<path style="fill:none;" d="M550.505,191.377c-7.896-9.438-19.981-14.16-36.255-14.16c-16.602,0-29.583,4.967-38.94,14.893
		c-9.361,9.93-14.526,23.438-15.503,40.527h10.645l88.995-24.235C557.356,201.69,554.379,196.011,550.505,191.377z"/>
	<path style="fill:none;" d="M559.446,208.402l-88.995,24.235h92.626C562.83,223.438,561.615,215.364,559.446,208.402z"/>
	<path style="fill:none;" d="M113.615,336.885c20.508,0,37.8-0.366,51.88-1.099c14.076-0.732,27.466-5.085,40.161-13.062
		c10.486-6.61,19.211-14.985,26.186-25.11l-119.936,32.66v6.61H113.615z"/>
	<path style="fill:none;" d="M239.836,283.662c7.813-16.602,11.719-36.865,11.719-60.791s-4.112-44.392-12.329-61.401
		c-8.221-17.006-20.874-30.312-37.964-39.917c-12.371-6.836-25.353-10.578-38.94-11.23c-13.592-0.648-29.827-0.977-48.706-0.977
		h-1.709v220.929l119.936-32.66C234.826,293.282,237.495,288.636,239.836,283.662z"/>
	<path d="M205.656,322.725c-12.695,7.977-26.085,12.329-40.161,13.062c-14.08,0.732-31.372,1.099-51.88,1.099h-1.709v-6.61
		L20.598,355.14V405h113.77c25.063,0,48.706-1.747,70.923-5.249c22.217-3.498,42.763-11.353,61.646-23.56
		c22.621-14.32,41.34-34.87,56.152-61.646c8.008-14.477,13.832-29.999,17.511-46.548l-108.757,29.616
		C224.867,307.739,216.143,316.115,205.656,322.725z"/>
	<path style="fill:#287FC3;" d="M324.553,132.929c-13.836-25.959-32.715-46.589-56.641-61.89
		c-19.531-12.531-40.447-20.424-62.744-23.682c-22.301-3.254-46.227-4.883-71.777-4.883H20.598V356.14l91.309-24.865V110.346h1.709
		c18.879,0,35.114,0.328,48.706,0.977c13.588,0.652,26.569,4.395,38.94,11.23c17.09,9.605,29.743,22.911,37.964,39.917
		c8.217,17.01,12.329,37.476,12.329,61.401s-3.906,44.189-11.719,60.791c-2.341,4.974-5.01,9.62-7.994,13.952l108.757-29.616
		c3.124-14.055,4.706-28.847,4.706-44.395C345.305,189.447,338.385,158.892,324.553,132.929z"/>
	<path d="M563.078,232.637h-92.626l-95.829,26.096c-0.171,3.532-0.266,7.117-0.266,10.77c0,45.738,13.794,80.975,41.382,105.713
		c27.588,24.742,67.261,37.109,119.019,37.109c14.16,0,26.161-0.694,36.011-2.075c9.846-1.385,19.409-3.296,28.687-5.737
		c10.09-2.441,18.024-4.841,23.804-7.202c5.775-2.357,12.165-4.921,19.165-7.69v-70.557h-9.033
		c-3.746,2.77-8.587,5.943-14.526,9.521c-5.943,3.582-12.413,6.92-19.409,10.01c-7.977,3.582-16.766,6.47-26.367,8.667
		c-9.605,2.197-19.371,3.296-29.297,3.296c-11.559,0-22.217-1.099-31.982-3.296s-18.311-5.817-25.635-10.864
		c-7.488-5.043-13.512-11.841-18.066-20.386c-4.559-8.545-7.244-19.165-8.057-31.86h187.256v-30.762
		c0-25.488-3.876-47.401-11.612-65.75l-76.248,20.763C561.615,215.364,562.83,223.438,563.078,232.637z"/>
	<path style="fill:#287FC3;" d="M520.842,123.285c-46.227,0-82.195,13.348-107.91,40.039c-23.62,24.517-36.382,56.656-38.309,96.408
		l95.829-26.096h-10.645c0.977-17.09,6.142-30.598,15.503-40.527c9.357-9.926,22.339-14.893,38.94-14.893
		c16.273,0,28.358,4.723,36.255,14.16c3.874,4.634,6.851,10.313,8.941,17.025l76.248-20.763
		c-5.059-11.997-11.762-22.474-20.126-31.418C594.408,134.6,562.834,123.285,520.842,123.285z"/>
	<polygon points="663.664,180.021 663.664,190.4 697.844,190.4 697.844,405 783.293,405 783.293,190.4 848.234,190.4 
		848.234,130.83 844.306,130.83 	"/>
	<path style="fill:#287FC3;" d="M780.363,131.83v-2.197c0-17.414,3.132-29.297,9.399-35.645c6.264-6.348,18.024-9.521,35.278-9.521
		c6.184,0,12.733,0.774,19.653,2.319c6.916,1.549,12.001,2.808,15.259,3.784h6.592V28.559c-7.813-1.465-17.09-2.644-27.832-3.54
		c-10.742-0.893-22.301-1.343-34.668-1.343c-35.645,0-62.256,8.385-79.834,25.146c-17.578,16.766-26.367,41.912-26.367,75.439v7.568
		h-34.18v49.191l180.642-49.191H780.363z"/>
	<path style="fill:none;" d="M1717.25,211.641c-2.93-6.184-7.164-10.62-12.695-13.306c-5.535-2.686-12.939-4.028-22.217-4.028
		c-7,0-14.08,1.305-21.24,3.906c-7.164,2.605-14.813,6.756-22.949,12.451v59.208l84.169-33.059
		c-0.022-0.293-0.038-0.588-0.063-0.881C1721.358,224.946,1719.691,216.852,1717.25,211.641z"/>
	<path style="fill:none;" d="M1404.506,201.875c-5.047-6.836-10.742-11.597-17.09-14.282s-13.592-4.028-21.729-4.028
		c-7.652,0-14.568,1.183-20.752,3.54c-6.188,2.361-11.883,6.878-17.09,13.55c-4.883,6.348-8.789,15.057-11.719,26.123
		c-2.93,11.07-4.395,24.986-4.395,41.748c0,16.766,1.381,30.315,4.15,40.649c2.766,10.338,6.348,18.597,10.742,24.78
		c4.555,6.348,10.254,10.986,17.09,13.916s14.404,4.395,22.705,4.395c6.836,0,13.794-1.465,20.874-4.395s12.733-7.324,16.968-13.184
		c5.043-6.996,8.869-15.419,11.475-25.269c2.602-9.846,3.906-23.476,3.906-40.894c0-16.273-1.343-29.823-4.028-40.649
		C1412.929,217.054,1409.225,208.387,1404.506,201.875z"/>
	<path d="M1470.18,161.226c-24.742-25.959-59.57-38.94-104.492-38.94c-44.762,0-79.552,12.901-104.37,38.696
		c-24.822,25.799-37.231,61.485-37.231,107.056c0,45.086,12.409,80.608,37.231,106.567c11.343,11.865,24.774,21.01,40.281,27.451
		l197.799-77.688c5.257-16.739,7.892-35.513,7.892-56.331C1507.289,222.791,1494.918,187.188,1470.18,161.226z M1415.736,309.419
		c-2.605,9.85-6.432,18.272-11.475,25.269c-4.234,5.859-9.888,10.254-16.968,13.184s-14.038,4.395-20.874,4.395
		c-8.301,0-15.869-1.465-22.705-4.395s-12.535-7.568-17.09-13.916c-4.395-6.184-7.977-14.442-10.742-24.78
		c-2.77-10.334-4.15-23.884-4.15-40.649c0-16.762,1.465-30.678,4.395-41.748c2.93-11.066,6.836-19.775,11.719-26.123
		c5.207-6.672,10.902-11.188,17.09-13.55c6.184-2.357,13.1-3.54,20.752-3.54c8.137,0,15.381,1.343,21.729,4.028
		s12.043,7.446,17.09,14.282c4.719,6.512,8.423,15.179,11.108,26.001c2.686,10.826,4.028,24.376,4.028,40.649
		C1419.643,285.943,1418.338,299.573,1415.736,309.419z"/>
	<path style="fill:#287FC3;" d="M1365.688,412.545c45.082,0,79.956-12.978,104.614-38.94c13.272-13.973,22.967-30.722,29.096-50.236
		l-197.799,77.688C1320.024,408.71,1341.383,412.545,1365.688,412.545z"/>
	<polygon style="fill:#287FC3;" points="1552.699,404 1638.148,404 1638.148,268.873 1552.699,302.434 	"/>
	<path style="fill:#287FC3;" d="M1722.317,235.814c0.846,10.695,1.28,21.429,1.28,32.2V404h85.938V225.533
		c0-8.3-0.457-16.111-1.365-23.438L1722.317,235.814z"/>
	<path d="M1787.318,149.751c-14.813-17.658-36.217-26.489-64.209-26.489c-16.113,0-30.804,3.338-44.067,10.01
		c-13.268,6.676-26.897,15.953-40.894,27.832V130.83h-85.449v172.604l85.449-33.561v-59.208c8.137-5.695,15.785-9.846,22.949-12.451
		c7.16-2.602,14.24-3.906,21.24-3.906c9.277,0,16.682,1.343,22.217,4.028c5.531,2.686,9.766,7.122,12.695,13.306
		c2.441,5.211,4.108,13.306,5.005,24.292c0.024,0.293,0.04,0.588,0.063,0.881l85.853-33.719
		C1805.41,180.823,1798.461,163.041,1787.318,149.751z"/>
	<rect x="18.598" y="454.477" style="fill:#287FC3;" width="1046.402" height="19.297"/>
	<rect x="1390" y="24.676" style="fill:#287FC3;" width="419.535" height="18.799"/>
</g>
</svg>
