<?xml version="1.0" encoding="utf-8"?>
<!-- Generator: Adobe Illustrator 25.4.1, SVG Export Plug-In . SVG Version: 6.00 Build 0)  -->
<svg version="1.1" id="레이어_1" xmlns="http://www.w3.org/2000/svg" xmlns:xlink="http://www.w3.org/1999/xlink" x="0px"
	 y="0px" viewBox="0 0 576 257" style="enable-background:new 0 0 576 257;" xml:space="preserve">
<style type="text/css">
	.st0{fill:url(#SVGID_1_);}
	.st1{fill:url(#SVGID_00000021807577904605451350000009035395111331227549_);}
	.st2{fill:#231815;}
	.st3{fill:url(#SVGID_00000001656332253391425550000005992500076917825958_);}
	.st4{fill:url(#SVGID_00000052095152405625953970000008949088544039208323_);}
</style>
<g>
	<linearGradient id="SVGID_1_" gradientUnits="userSpaceOnUse" x1="23.9593" y1="122.4475" x2="179.0287" y2="148.5295">
		<stop  offset="0" style="stop-color:#1A264A"/>
		<stop  offset="1" style="stop-color:#48B8A2"/>
	</linearGradient>
	<path class="st0" d="M23.54,55.39h0.47c19.42,19.03,41.69,41.29,66.79,66.79v0.47c-19.03,19.42-41.29,41.69-66.79,66.79h-0.47
		c-0.47,0-8.37-7.89-23.69-23.69v-0.47l39.62-40.06c1.66-1.68,1.63-4.4-0.06-6.05C24.22,104.3,11.03,91.09-0.15,79.54v-0.47
		C-0.15,78.6,7.75,70.7,23.54,55.39z"/>
	
		<linearGradient id="SVGID_00000139983061413674738580000007163256429942436536_" gradientUnits="userSpaceOnUse" x1="18.5027" y1="154.8893" x2="173.5721" y2="180.9713">
		<stop  offset="0" style="stop-color:#1A264A"/>
		<stop  offset="0.1656" style="stop-color:#203855"/>
		<stop  offset="0.4981" style="stop-color:#2E6771"/>
		<stop  offset="0.9629" style="stop-color:#46B29E"/>
		<stop  offset="1" style="stop-color:#48B8A2"/>
	</linearGradient>
	<path style="fill:url(#SVGID_00000139983061413674738580000007163256429942436536_);" d="M75.54,161.38h130.08
		c0.54,0.1,0.81,0.49,0.81,1.17v25.73c0,0.78-0.27,1.17-0.81,1.17H75.54c-0.54,0-0.81-0.39-0.81-1.17v-25.73
		C74.8,161.77,75.07,161.38,75.54,161.38z"/>
</g>
<path class="st2" d="M233.41,0h66.85c3.23,0,6.33,1.27,8.64,3.52c6.55,6.36,12.42,12.2,17.61,17.52c2.26,2.32,3.51,5.41,3.51,8.64
	V93.4c0,3.24-1.28,6.35-3.54,8.67c-6.4,6.55-12.26,12.42-17.59,17.61c-2.31,2.26-5.41,3.51-8.64,3.51H234.1
	c-0.35,0-0.83-0.52-1.47-1.55V0.69C232.69,0.23,232.95,0,233.41,0z M268.95,49.04v25.02c0,6.84,5.54,12.38,12.38,12.38h0
	c6.84,0,12.38-5.54,12.38-12.38V49.04c0-6.84-5.54-12.38-12.38-12.38h0C274.5,36.66,268.95,42.21,268.95,49.04z"/>
<path class="st2" d="M336.07,0h86.18c0.46,0.06,0.69,0.29,0.69,0.69v34.85c0,0.52-0.23,0.78-0.69,0.78H371.7v6.73h28.04
	c0.52,0.06,0.78,0.32,0.78,0.78v34.77c0,0.52-0.26,0.78-0.78,0.78H371.7v6.38h50.55c0.46,0.06,0.69,0.29,0.69,0.69v35.2
	c0,0.52-0.23,0.78-0.69,0.78h-86.18c-0.46,0-0.69-0.26-0.69-0.78V0.69C335.44,0.23,335.67,0,336.07,0z"/>
<path class="st2" d="M432.35,0h86.1c0.52,0.06,0.78,0.29,0.78,0.69v34.85c0,0.52-0.26,0.78-0.78,0.78h-50.55v6.73h28.12
	c0.46,0.06,0.69,0.32,0.69,0.78v34.77c0,0.52-0.23,0.78-0.69,0.78h-28.12v42.27c0,0.52-0.23,0.78-0.69,0.78h-34.85
	c-0.52,0-0.78-0.26-0.78-0.78V0.69C431.69,0.23,431.95,0,432.35,0z"/>
<linearGradient id="SVGID_00000102514147513131768910000012308658159823103926_" gradientUnits="userSpaceOnUse" x1="232.6347" y1="195.2618" x2="269.2992" y2="195.2618">
	<stop  offset="0.0236" style="stop-color:#1A264A"/>
	<stop  offset="1" style="stop-color:#48B8A2"/>
</linearGradient>
<path style="fill:url(#SVGID_00000102514147513131768910000012308658159823103926_);" d="M233.41,156.4h35.11
	c0.52,0.12,0.78,0.38,0.78,0.78v25.71c0,0.52-0.26,0.78-0.78,0.78h-35.11c-0.52,0-0.78-0.26-0.78-0.78v-25.71
	C232.69,156.66,232.95,156.4,233.41,156.4z M233.41,206.87h35.11c0.52,0.12,0.78,0.38,0.78,0.78v25.71c0,0.52-0.26,0.78-0.78,0.78
	h-35.11c-0.52,0-0.78-0.26-0.78-0.78v-25.71C232.69,207.12,232.95,206.87,233.41,206.87z"/>
<linearGradient id="SVGID_00000079487955422296521690000005027325808626879148_" gradientUnits="userSpaceOnUse" x1="277.9261" y1="195.2618" x2="367.1288" y2="195.2618">
	<stop  offset="0" style="stop-color:#1A264A"/>
	<stop  offset="1" style="stop-color:#48B8A2"/>
</linearGradient>
<path style="fill:url(#SVGID_00000079487955422296521690000005027325808626879148_);" d="M302.34,133.84h64.01
	c0.52,0.12,0.78,0.38,0.78,0.78l-14.26,18.51c0,0.52,14,17.46,13.48,17.46h-52.02v49.78h52.02c0.52,0.06-13.55,14.65-13.55,15.1
	l14.33,20.44c0,0.52-0.26,0.78-0.78,0.78h-64.01c-9.03-8.68-17.17-16.79-24.41-24.33v-74.19
	C286.67,149.19,294.8,141.08,302.34,133.84z"/>
<path class="st2" d="M400.43,133.84h45.72c9.6,9.32,17.83,17.57,24.67,24.76v73.42c-9.26,9.55-17.48,17.77-24.67,24.67h-45.72
	c-9.55-9.26-17.77-17.48-24.67-24.67V158.6C385.01,148.99,393.24,140.74,400.43,133.84z M412.42,170.59v49.78h21.74v-39.03
	c0-5.94-4.81-10.75-10.75-10.75H412.42z"/>
<path class="st2" d="M480.23,134.27h35.2c0.86,0.69,8.97,15.67,24.33,44.95h0.35v-44.26c0.06-0.46,0.31-0.69,0.78-0.69h34.77
	c0.52,0.06,0.78,0.29,0.78,0.69v120.95c0,0.52-0.26,0.78-0.78,0.78h-35.2c-3.51-5.52-11.47-20.36-23.9-44.52h-0.43v43.74
	c0,0.52-0.23,0.78-0.69,0.78h-35.2c-0.52,0-0.78-0.26-0.78-0.78V134.96C479.51,134.5,479.77,134.27,480.23,134.27z"/>
</svg>
