<?xml version="1.0" encoding="utf-8"?>
<svg viewBox="0 0 207 134" xmlns="http://www.w3.org/2000/svg">
  <linearGradient id="SVGID_1_" gradientUnits="userSpaceOnUse" x1="23.9439" y1="66.9053" x2="179.0531" y2="92.994" gradientTransform="matrix(1, 0, 0, 1, 0.686895, 0.560792)">
    <stop offset="0" style="stop-color:#1A264A"/>
    <stop offset="1" style="stop-color:#48B8A2"/>
  </linearGradient>
  <linearGradient id="SVGID_00000054946431952602141140000006320690568038210749_" gradientUnits="userSpaceOnUse" x1="18.4859" y1="99.3555" x2="173.5952" y2="125.4442" gradientTransform="matrix(1, 0, 0, 1, 0.686895, 0.560792)">
    <stop offset="0" style="stop-color:#1A264A"/>
    <stop offset="0.1656" style="stop-color:#203855"/>
    <stop offset="0.4981" style="stop-color:#2E6771"/>
    <stop offset="0.9629" style="stop-color:#46B29E"/>
    <stop offset="1" style="stop-color:#48B8A2"/>
  </linearGradient>
  <path class="st0" d="M 24.207 0.391 L 24.687 0.391 C 44.117 19.421 66.387 41.691 91.497 67.201 L 91.497 67.671 C 72.467 87.101 50.197 109.371 24.687 134.481 L 24.217 134.481 C 23.747 134.481 15.847 126.581 0.527 110.791 L 0.527 110.321 L 40.157 70.251 C 41.817 68.571 41.787 65.851 40.097 64.201 C 24.887 49.311 11.697 36.101 0.517 24.551 L 0.517 24.081 C 0.517 23.601 8.417 15.711 24.207 0.391 Z" style="fill: url(#SVGID_1_);"/>
  <path style="fill:url(#SVGID_00000054946431952602141140000006320690568038210749_);" d="M 76.227 106.411 L 206.337 106.411 C 206.877 106.511 207.147 106.901 207.147 107.581 L 207.147 133.311 C 207.147 134.091 206.877 134.481 206.337 134.481 L 76.227 134.481 C 75.687 134.481 75.417 134.091 75.417 133.311 L 75.417 107.581 C 75.487 106.801 75.757 106.411 76.227 106.411 Z"/>
</svg>