<?xml version="1.0" encoding="utf-8"?>
<!-- Generator: Adobe Illustrator 25.4.1, SVG Export Plug-In . SVG Version: 6.00 Build 0)  -->
<svg version="1.1" id="레이어_1" xmlns="http://www.w3.org/2000/svg" xmlns:xlink="http://www.w3.org/1999/xlink" x="0px"
	 y="0px" viewBox="0 0 876 134" style="enable-background:new 0 0 876 134;" xml:space="preserve">
<style type="text/css">
	.st0{fill:url(#SVGID_1_);}
	.st1{fill:url(#SVGID_00000072973804384714433790000012112376046036356792_);}
	.st2{fill:#231815;}
	.st3{fill:url(#SVGID_00000001657783881436194460000015253103240719878073_);}
	.st4{fill:url(#SVGID_00000177470649301022367940000013985838104896837272_);}
</style>
<g>
	<g>
		<linearGradient id="SVGID_1_" gradientUnits="userSpaceOnUse" x1="23.9439" y1="66.9053" x2="179.0531" y2="92.994">
			<stop  offset="0" style="stop-color:#1A264A"/>
			<stop  offset="1" style="stop-color:#48B8A2"/>
		</linearGradient>
		<path class="st0" d="M23.52-0.17H24c19.43,19.03,41.7,41.3,66.81,66.81v0.47c-19.03,19.43-41.3,41.7-66.81,66.81h-0.47
			c-0.47,0-8.37-7.9-23.69-23.69v-0.47l39.63-40.07c1.66-1.68,1.63-4.4-0.06-6.05C24.2,48.75,11.01,35.54-0.17,23.99v-0.47
			C-0.17,23.04,7.73,15.15,23.52-0.17z"/>
		
			<linearGradient id="SVGID_00000054946431952602141140000006320690568038210749_" gradientUnits="userSpaceOnUse" x1="18.4859" y1="99.3555" x2="173.5952" y2="125.4442">
			<stop  offset="0" style="stop-color:#1A264A"/>
			<stop  offset="0.1656" style="stop-color:#203855"/>
			<stop  offset="0.4981" style="stop-color:#2E6771"/>
			<stop  offset="0.9629" style="stop-color:#46B29E"/>
			<stop  offset="1" style="stop-color:#48B8A2"/>
		</linearGradient>
		<path style="fill:url(#SVGID_00000054946431952602141140000006320690568038210749_);" d="M75.54,105.85h130.11
			c0.54,0.1,0.81,0.49,0.81,1.17v25.73c0,0.78-0.27,1.17-0.81,1.17H75.54c-0.54,0-0.81-0.39-0.81-1.17v-25.73
			C74.8,106.24,75.07,105.85,75.54,105.85z"/>
	</g>
	<path class="st2" d="M237.61,10.79h66.87c3.23,0,6.33,1.27,8.65,3.52c6.55,6.36,12.42,12.2,17.61,17.53
		c2.26,2.32,3.52,5.41,3.52,8.65v63.73c0,3.24-1.28,6.35-3.54,8.67c-6.4,6.55-12.26,12.42-17.6,17.62
		c-2.32,2.26-5.41,3.51-8.64,3.51H238.3c-0.35,0-0.83-0.52-1.47-1.55V11.48C236.89,11.02,237.15,10.79,237.61,10.79z M273.17,59.84
		v25.02c0,6.84,5.54,12.38,12.38,12.38h0c6.84,0,12.38-5.54,12.38-12.38V59.84c0-6.84-5.54-12.38-12.38-12.38h0
		C278.71,47.46,273.17,53,273.17,59.84z"/>
	<path class="st2" d="M340.3,10.79h86.21c0.46,0.06,0.69,0.29,0.69,0.69v34.86c0,0.52-0.23,0.78-0.69,0.78h-50.57v6.73h28.04
		c0.52,0.06,0.78,0.32,0.78,0.78V89.4c0,0.52-0.26,0.78-0.78,0.78h-28.04v6.39h50.57c0.46,0.06,0.69,0.29,0.69,0.69v35.21
		c0,0.52-0.23,0.78-0.69,0.78H340.3c-0.46,0-0.69-0.26-0.69-0.78V11.48C339.67,11.02,339.9,10.79,340.3,10.79z"/>
	<path class="st2" d="M436.6,10.79h86.12c0.52,0.06,0.78,0.29,0.78,0.69v34.86c0,0.52-0.26,0.78-0.78,0.78h-50.57v6.73h28.13
		c0.46,0.06,0.69,0.32,0.69,0.78V89.4c0,0.52-0.23,0.78-0.69,0.78h-28.13v42.28c0,0.52-0.23,0.78-0.69,0.78H436.6
		c-0.52,0-0.78-0.26-0.78-0.78V11.48C435.94,11.02,436.2,10.79,436.6,10.79z"/>
	
		<linearGradient id="SVGID_00000072983970200933268470000002908062642404150150_" gradientUnits="userSpaceOnUse" x1="532.1276" y1="71.7934" x2="568.8015" y2="71.7934">
		<stop  offset="0.0236" style="stop-color:#1A264A"/>
		<stop  offset="1" style="stop-color:#48B8A2"/>
	</linearGradient>
	<path style="fill:url(#SVGID_00000072983970200933268470000002908062642404150150_);" d="M532.9,32.92h35.12
		c0.52,0.12,0.78,0.38,0.78,0.78v25.71c0,0.52-0.26,0.78-0.78,0.78H532.9c-0.52,0-0.78-0.26-0.78-0.78V33.7
		C532.18,33.18,532.44,32.92,532.9,32.92z M532.9,83.4h35.12c0.52,0.12,0.78,0.38,0.78,0.78v25.71c0,0.52-0.26,0.78-0.78,0.78H532.9
		c-0.52,0-0.78-0.26-0.78-0.78V84.18C532.18,83.66,532.44,83.4,532.9,83.4z"/>
	
		<linearGradient id="SVGID_00000134223898101743458610000000637110272785532575_" gradientUnits="userSpaceOnUse" x1="577.4307" y1="71.7934" x2="666.6563" y2="71.7934">
		<stop  offset="0" style="stop-color:#1A264A"/>
		<stop  offset="1" style="stop-color:#48B8A2"/>
	</linearGradient>
	<path style="fill:url(#SVGID_00000134223898101743458610000000637110272785532575_);" d="M601.85,10.35h64.03
		c0.52,0.12,0.78,0.38,0.78,0.78l-14.26,18.51c0,0.52,14,17.47,13.48,17.47h-52.03V96.9h52.03c0.52,0.06-13.56,14.65-13.56,15.11
		l14.33,20.44c0,0.52-0.26,0.78-0.78,0.78h-64.03c-9.03-8.69-17.17-16.8-24.42-24.33V34.69C586.17,25.71,594.31,17.6,601.85,10.35z"
		/>
	<path class="st2" d="M699.96,10.35h45.73c9.61,9.32,17.83,17.58,24.68,24.77v73.43c-9.26,9.55-17.49,17.78-24.68,24.68h-45.73
		c-9.55-9.26-17.78-17.49-24.68-24.68V35.12C684.55,25.51,692.77,17.26,699.96,10.35z M711.96,47.11V96.9h21.75V57.86
		c0-5.94-4.81-10.75-10.75-10.75H711.96z"/>
	<path class="st2" d="M779.78,10.79h35.21c0.86,0.69,8.97,15.68,24.33,44.96h0.35V11.48c0.06-0.46,0.31-0.69,0.78-0.69h34.78
		c0.52,0.06,0.78,0.29,0.78,0.69v120.98c0,0.52-0.26,0.78-0.78,0.78h-35.21c-3.51-5.52-11.48-20.36-23.9-44.53h-0.43v43.75
		c0,0.52-0.23,0.78-0.69,0.78h-35.21c-0.52,0-0.78-0.26-0.78-0.78V11.48C779.06,11.02,779.32,10.79,779.78,10.79z"/>
</g>
</svg>
